<mxfile host="app.diagrams.net" modified="2023-11-03T11:07:42.567Z" agent="Mozilla/5.0 (X11; Linux x86_64; rv:109.0) Gecko/20100101 Firefox/117.0" version="22.0.8" etag="CjiONWPmd4GKSxpwzoD0" type="github">
  <diagram name="PÃ¡gina-1" id="-hjfVLaIXEsCvENizBhv">
    <mxGraphModel>
      <root>
        <mxCell id="0" />
        <mxCell id="1" parent="0" />
      </root>
    </mxGraphModel>
  </diagram>
</mxfile>
